<svg width="31" height="30" viewBox="0 0 31 30" fill="none" xmlns="http://www.w3.org/2000/svg">
<path d="M27.1667 0H3.83333C2 0 0.5 1.5 0.5 3.33333V26.6667C0.5 28.5 2 30 3.83333 30H27.1667C29 30 30.5 28.5 30.5 26.6667V3.33333C30.5 1.5 29 0 27.1667 0ZM8.83334 23.3333C7.91667 23.3333 7.16667 22.5833 7.16667 21.6667V16.6667C7.16667 15.75 7.91667 15 8.83334 15C9.75 15 10.5 15.75 10.5 16.6667V21.6667C10.5 22.5833 9.75 23.3333 8.83334 23.3333ZM15.5 23.3333C14.5833 23.3333 13.8333 22.5833 13.8333 21.6667V20C13.8333 19.0833 14.5833 18.3333 15.5 18.3333C16.4167 18.3333 17.1667 19.0833 17.1667 20V21.6667C17.1667 22.5833 16.4167 23.3333 15.5 23.3333ZM15.5 15C14.5833 15 13.8333 14.25 13.8333 13.3333C13.8333 12.4167 14.5833 11.6667 15.5 11.6667C16.4167 11.6667 17.1667 12.4167 17.1667 13.3333C17.1667 14.25 16.4167 15 15.5 15ZM22.1667 23.3333C21.25 23.3333 20.5 22.5833 20.5 21.6667V8.33334C20.5 7.41667 21.25 6.66667 22.1667 6.66667C23.0833 6.66667 23.8333 7.41667 23.8333 8.33334V21.6667C23.8333 22.5833 23.0833 23.3333 22.1667 23.3333Z" fill="#00293A"/>
</svg>
