<svg width="37" height="35" viewBox="0 0 37 35" fill="none" xmlns="http://www.w3.org/2000/svg">
<path d="M30.166 0.666626L21.8327 8.99996V27.3333L30.166 19.8333V0.666626ZM0.166016 8.99996V33.4166C0.166016 33.8333 0.582682 34.25 0.999349 34.25C1.16602 34.25 1.24935 34.1666 1.41602 34.1666C3.66602 33.0833 6.91602 32.3333 9.33268 32.3333C12.5827 32.3333 16.0827 33 18.4994 34.8333V8.99996C16.0827 7.16663 12.5827 6.49996 9.33268 6.49996C6.08268 6.49996 2.58268 7.16663 0.166016 8.99996ZM36.8327 31.5V8.99996C35.8327 8.24996 34.7494 7.74996 33.4994 7.33329V29.8333C31.666 29.25 29.666 29 27.666 29C24.8327 29 20.7494 30.0833 18.4994 31.5V34.8333C20.7494 33.4166 24.8327 32.3333 27.666 32.3333C30.416 32.3333 33.2494 32.8333 35.5827 34.0833C35.7494 34.1666 35.8327 34.1666 35.9994 34.1666C36.416 34.1666 36.8327 33.75 36.8327 33.3333V31.5Z" fill="#00293A"/>
</svg>
