<svg width="37" height="26" viewBox="0 0 37 26" fill="none" xmlns="http://www.w3.org/2000/svg">
<path d="M18.4994 0.5C10.166 0.5 3.04935 5.68333 0.166016 13C3.04935 20.3167 10.166 25.5 18.4994 25.5C26.8327 25.5 33.9494 20.3167 36.8327 13C33.9494 5.68333 26.8327 0.5 18.4994 0.5ZM18.4994 21.3333C13.8994 21.3333 10.166 17.6 10.166 13C10.166 8.4 13.8994 4.66667 18.4994 4.66667C23.0994 4.66667 26.8327 8.4 26.8327 13C26.8327 17.6 23.0994 21.3333 18.4994 21.3333ZM18.4994 8C15.7327 8 13.4994 10.2333 13.4994 13C13.4994 15.7667 15.7327 18 18.4994 18C21.266 18 23.4994 15.7667 23.4994 13C23.4994 10.2333 21.266 8 18.4994 8Z" fill="#00293A"/>
</svg>
