<svg width="35" height="30" viewBox="0 0 35 30" fill="none" xmlns="http://www.w3.org/2000/svg">
<path d="M7.50065 20C9.33399 20 10.834 21.5 10.834 23.3333C10.834 25.1667 9.33399 26.6667 7.50065 26.6667C5.66732 26.6667 4.16732 25.1667 4.16732 23.3333C4.16732 21.5 5.66732 20 7.50065 20ZM7.50065 16.6667C3.83399 16.6667 0.833984 19.6667 0.833984 23.3333C0.833984 27 3.83399 30 7.50065 30C11.1673 30 14.1673 27 14.1673 23.3333C14.1673 19.6667 11.1673 16.6667 7.50065 16.6667ZM17.5007 3.33333C19.334 3.33333 20.834 4.83333 20.834 6.66667C20.834 8.5 19.334 10 17.5007 10C15.6673 10 14.1673 8.5 14.1673 6.66667C14.1673 4.83333 15.6673 3.33333 17.5007 3.33333ZM17.5007 0C13.834 0 10.834 3 10.834 6.66667C10.834 10.3333 13.834 13.3333 17.5007 13.3333C21.1673 13.3333 24.1673 10.3333 24.1673 6.66667C24.1673 3 21.1673 0 17.5007 0ZM27.5007 20C29.334 20 30.834 21.5 30.834 23.3333C30.834 25.1667 29.334 26.6667 27.5007 26.6667C25.6673 26.6667 24.1673 25.1667 24.1673 23.3333C24.1673 21.5 25.6673 20 27.5007 20ZM27.5007 16.6667C23.834 16.6667 20.834 19.6667 20.834 23.3333C20.834 27 23.834 30 27.5007 30C31.1673 30 34.1673 27 34.1673 23.3333C34.1673 19.6667 31.1673 16.6667 27.5007 16.6667Z" fill="#00293A"/>
</svg>
