<svg width="37" height="24" viewBox="0 0 37 24" fill="none" xmlns="http://www.w3.org/2000/svg">
<path d="M25.166 10.3334C27.9327 10.3334 30.1494 8.10004 30.1494 5.33338C30.1494 2.56671 27.9327 0.333374 25.166 0.333374C22.3994 0.333374 20.166 2.56671 20.166 5.33338C20.166 8.10004 22.3994 10.3334 25.166 10.3334ZM11.8327 10.3334C14.5994 10.3334 16.816 8.10004 16.816 5.33338C16.816 2.56671 14.5994 0.333374 11.8327 0.333374C9.06602 0.333374 6.83268 2.56671 6.83268 5.33338C6.83268 8.10004 9.06602 10.3334 11.8327 10.3334ZM11.8327 13.6667C7.94935 13.6667 0.166016 15.6167 0.166016 19.5V22C0.166016 22.9167 0.916016 23.6667 1.83268 23.6667H21.8327C22.7494 23.6667 23.4994 22.9167 23.4994 22V19.5C23.4994 15.6167 15.716 13.6667 11.8327 13.6667ZM25.166 13.6667C24.6827 13.6667 24.1327 13.7 23.5494 13.75C23.5827 13.7667 23.5994 13.8 23.616 13.8167C25.516 15.2 26.8327 17.05 26.8327 19.5V22C26.8327 22.5834 26.716 23.15 26.5327 23.6667H35.166C36.0827 23.6667 36.8327 22.9167 36.8327 22V19.5C36.8327 15.6167 29.0494 13.6667 25.166 13.6667Z" fill="#00293A"/>
</svg>
