<svg width="28" height="22" viewBox="0 0 28 22" fill="none" xmlns="http://www.w3.org/2000/svg">
<path d="M1.72434 22C0.57478 18.7407 0 15.5086 0 12.3037C0 8.60988 0.985337 5.64938 2.95601 3.42223C4.92669 1.14074 7.80059 0 11.5777 0V5.13333C8.67644 5.13333 7.22581 6.98025 7.22581 10.6741V11.8963H12.4809V22H1.72434ZM17.2434 22C16.1486 18.6864 15.6012 15.4543 15.6012 12.3037C15.6012 8.60988 16.5591 5.64938 18.4751 3.42223C20.4457 1.14074 23.3197 0 27.0968 0V5.13333C24.2502 5.13333 22.827 6.98025 22.827 10.6741V11.8963H28V22H17.2434Z" fill="#69bc45"/>
</svg>
