<svg width="100" height="99" viewBox="0 0 100 99" fill="none" xmlns="http://www.w3.org/2000/svg">
<ellipse cx="50" cy="49.1071" rx="50" ry="49.1071" fill="#FCF99F"/>
<path d="M25.9139 43.878C25.3679 44.676 24.4999 45.208 23.5059 45.208C22.7079 45.208 22.0499 44.914 21.5179 44.34C20.9859 43.752 20.7199 43.038 20.7199 42.198C20.7199 41.344 20.9859 40.63 21.5179 40.056C22.0499 39.468 22.7079 39.174 23.5059 39.174C24.4999 39.174 25.2839 39.594 25.8579 40.434L27.5239 39.286C26.6699 38.04 25.1859 37.242 23.5059 37.242C22.1339 37.242 20.9859 37.718 20.0479 38.684C19.1239 39.65 18.6619 40.812 18.6619 42.198C18.6619 43.57 19.1239 44.732 20.0479 45.698C20.9859 46.664 22.1339 47.14 23.5059 47.14C25.2279 47.14 26.7119 46.328 27.5659 45.026L25.9139 43.878ZM34.681 47V45.194H31.069V37.354H29.011V47H34.681ZM36.1613 47H38.2053V37.354H36.1613V47ZM47.16 43.878C46.614 44.676 45.746 45.208 44.752 45.208C43.954 45.208 43.296 44.914 42.764 44.34C42.232 43.752 41.966 43.038 41.966 42.198C41.966 41.344 42.232 40.63 42.764 40.056C43.296 39.468 43.954 39.174 44.752 39.174C45.746 39.174 46.53 39.594 47.104 40.434L48.77 39.286C47.916 38.04 46.432 37.242 44.752 37.242C43.38 37.242 42.232 37.718 41.294 38.684C40.37 39.65 39.908 40.812 39.908 42.198C39.908 43.57 40.37 44.732 41.294 45.698C42.232 46.664 43.38 47.14 44.752 47.14C46.474 47.14 47.958 46.328 48.812 45.026L47.16 43.878ZM57.019 37.354H54.611L52.329 40.518V37.354H50.257V47H52.329V43.724L55.227 47H57.887L53.365 42.128L57.019 37.354ZM63.5214 39.202V47H65.5934V39.202H68.1974V37.354H60.9174V39.202H63.5214ZM76.689 42.198C76.689 42.996 76.409 43.682 75.849 44.256C75.303 44.83 74.631 45.11 73.833 45.11C73.035 45.11 72.363 44.83 71.817 44.27C71.271 43.696 70.991 43.01 70.991 42.198C70.991 41.386 71.271 40.7 71.817 40.126C72.363 39.552 73.035 39.272 73.833 39.272C74.631 39.272 75.303 39.552 75.849 40.126C76.409 40.7 76.689 41.386 76.689 42.198ZM68.947 42.198C68.947 43.556 69.423 44.732 70.361 45.698C71.313 46.664 72.475 47.14 73.833 47.14C75.191 47.14 76.353 46.664 77.305 45.698C78.257 44.732 78.733 43.556 78.733 42.198C78.733 40.826 78.257 39.664 77.305 38.698C76.367 37.732 75.205 37.242 73.833 37.242C72.475 37.242 71.313 37.732 70.361 38.698C69.423 39.664 68.947 40.826 68.947 42.198ZM27.407 65V63.194H23.221V61.136H26.777V59.358H23.221V57.16H27.281V55.354H21.177V65H27.407ZM34.5214 55.354L32.7154 58.238L30.9234 55.354H28.4594L31.4974 59.862L28.1654 65H30.5734L32.7154 61.5L34.8574 65H37.2794L33.9334 59.862L36.9714 55.354H34.5214ZM42.3782 57.16C43.0922 57.16 43.5402 57.846 43.5402 58.518C43.5402 59.204 43.0642 59.876 42.3222 59.876H40.5162V57.16H42.3782ZM40.5162 65V61.668H42.4202C43.4562 61.668 44.2402 61.36 44.7862 60.744C45.3322 60.128 45.5982 59.386 45.5982 58.518C45.5982 57.65 45.3322 56.908 44.7862 56.292C44.2402 55.662 43.4562 55.354 42.4202 55.354H38.4582V65H40.5162ZM52.7278 65V63.194H49.1158V55.354H47.0578V65H52.7278ZM61.1715 60.198C61.1715 60.996 60.8915 61.682 60.3315 62.256C59.7855 62.83 59.1135 63.11 58.3155 63.11C57.5175 63.11 56.8455 62.83 56.2995 62.27C55.7535 61.696 55.4735 61.01 55.4735 60.198C55.4735 59.386 55.7535 58.7 56.2995 58.126C56.8455 57.552 57.5175 57.272 58.3155 57.272C59.1135 57.272 59.7855 57.552 60.3315 58.126C60.8915 58.7 61.1715 59.386 61.1715 60.198ZM53.4295 60.198C53.4295 61.556 53.9055 62.732 54.8435 63.698C55.7955 64.664 56.9575 65.14 58.3155 65.14C59.6735 65.14 60.8355 64.664 61.7875 63.698C62.7395 62.732 63.2155 61.556 63.2155 60.198C63.2155 58.826 62.7395 57.664 61.7875 56.698C60.8495 55.732 59.6875 55.242 58.3155 55.242C56.9575 55.242 55.7955 55.732 54.8435 56.698C53.9055 57.664 53.4295 58.826 53.4295 60.198ZM68.777 57.16C69.491 57.16 69.939 57.846 69.939 58.518C69.939 59.204 69.463 59.876 68.721 59.876H66.985V57.16H68.777ZM69.673 61.584C71.241 61.248 72.081 59.988 72.081 58.518C72.081 57.65 71.801 56.908 71.241 56.292C70.695 55.662 69.897 55.354 68.875 55.354H64.927V65H66.985V61.668H67.447L69.603 65H72.067L69.673 61.584ZM80.071 65V63.194H75.885V61.136H79.441V59.358H75.885V57.16H79.945V55.354H73.841V65H80.071Z" fill="#163D5D"/>
</svg>
