<svg width="15" height="14" viewBox="0 0 15 14" fill="none" xmlns="http://www.w3.org/2000/svg">
<path d="M8.16329 0.362212C7.90381 -0.120737 7.09685 -0.120737 6.83736 0.362212L0.087697 12.9159C0.0269377 13.0285 -0.00318414 13.1546 0.000266379 13.282C0.0037169 13.4093 0.0406221 13.5337 0.107386 13.6428C0.17415 13.752 0.268496 13.8423 0.38123 13.9049C0.493965 13.9675 0.621243 14.0002 0.750664 14H14.25C14.3793 14.0003 14.5065 13.9675 14.6192 13.905C14.7318 13.8424 14.8261 13.7522 14.8928 13.6431C14.9595 13.534 14.9963 13.4097 14.9997 13.2824C15.0031 13.1551 14.973 13.0291 14.9122 12.9167L8.16329 0.362212ZM8.25029 11.7846H6.75036V10.3077H8.25029V11.7846ZM6.75036 8.83081V5.13854H8.25029L8.25104 8.83081H6.75036Z" fill="#EB4568"/>
</svg>
