<svg width="25" height="25" viewBox="0 0 25 25" fill="none" xmlns="http://www.w3.org/2000/svg">
<path d="M12.7031 1.62988C6.90469 1.62988 2.20312 6.33145 2.20312 12.1299C2.20312 17.9283 6.90469 22.6299 12.7031 22.6299C18.5016 22.6299 23.2031 17.9283 23.2031 12.1299C23.2031 6.33145 18.5016 1.62988 12.7031 1.62988ZM17.7492 9.54473C17.7562 9.65488 17.7562 9.76973 17.7562 9.88223C17.7562 13.3229 15.1359 17.2861 10.3477 17.2861C8.87109 17.2861 7.50234 16.8572 6.34922 16.1189C6.56016 16.1424 6.76172 16.1518 6.97734 16.1518C8.19609 16.1518 9.31641 15.7393 10.2094 15.0408C9.06563 15.0174 8.10469 14.2674 7.77656 13.2361C8.17734 13.2947 8.53828 13.2947 8.95078 13.1893C8.36186 13.0696 7.83252 12.7498 7.45269 12.2841C7.07287 11.8184 6.86598 11.2355 6.86719 10.6346V10.6018C7.21172 10.7963 7.61719 10.9158 8.04141 10.9322C7.68479 10.6946 7.39232 10.3726 7.18995 9.9948C6.98757 9.61703 6.88154 9.19516 6.88125 8.7666C6.88125 8.28145 7.00781 7.83848 7.23516 7.4541C7.88883 8.2588 8.70452 8.91693 9.62921 9.38574C10.5539 9.85454 11.5669 10.1235 12.6023 10.1752C12.2344 8.40566 13.5563 6.97363 15.1453 6.97363C15.8953 6.97363 16.5703 7.2877 17.0461 7.79395C17.6344 7.68379 18.1969 7.46348 18.6984 7.16816C18.5039 7.77051 18.0961 8.2791 17.5547 8.60019C18.0797 8.54395 18.5859 8.39863 19.0547 8.19473C18.7008 8.71504 18.2578 9.17676 17.7492 9.54473Z" fill="white"/>
</svg>
