<svg width="25" height="25" viewBox="0 0 25 25" fill="none" xmlns="http://www.w3.org/2000/svg">
<path fill-rule="evenodd" clip-rule="evenodd" d="M8.16813 1.19588C9.34113 1.14188 9.71513 1.12988 12.7031 1.12988C15.6911 1.12988 16.0651 1.14288 17.2371 1.19588C18.4091 1.24888 19.2091 1.43588 19.9091 1.70688C20.6421 1.98388 21.3071 2.41688 21.8571 2.97688C22.4171 3.52588 22.8491 4.18988 23.1251 4.92388C23.3971 5.62388 23.5831 6.42388 23.6371 7.59388C23.6911 8.76888 23.7031 9.14288 23.7031 12.1299C23.7031 15.1179 23.6901 15.4919 23.6371 16.6649C23.5841 17.8349 23.3971 18.6349 23.1251 19.3349C22.8491 20.069 22.4164 20.7341 21.8571 21.2839C21.3071 21.8439 20.6421 22.2759 19.9091 22.5519C19.2091 22.8239 18.4091 23.0099 17.2391 23.0639C16.0651 23.1179 15.6911 23.1299 12.7031 23.1299C9.71513 23.1299 9.34113 23.1169 8.16813 23.0639C6.99813 23.0109 6.19812 22.8239 5.49813 22.5519C4.76405 22.2758 4.09895 21.8431 3.54912 21.2839C2.9895 20.7346 2.55644 20.0698 2.28013 19.3359C2.00913 18.6359 1.82312 17.8359 1.76912 16.6659C1.71512 15.4909 1.70312 15.1169 1.70312 12.1299C1.70312 9.14188 1.71612 8.76788 1.76912 7.59588C1.82212 6.42388 2.00913 5.62388 2.28013 4.92388C2.55685 4.18996 2.99024 3.5252 3.55012 2.97588C4.09917 2.41638 4.7636 1.98333 5.49713 1.70688C6.19712 1.43588 6.99713 1.24988 8.16713 1.19588H8.16813ZM17.1481 3.17588C15.9881 3.12288 15.6401 3.11188 12.7031 3.11188C9.76612 3.11188 9.41812 3.12288 8.25812 3.17588C7.18512 3.22488 6.60313 3.40388 6.21513 3.55488C5.70213 3.75488 5.33513 3.99188 4.95013 4.37688C4.58517 4.73193 4.30431 5.16417 4.12812 5.64188C3.97712 6.02988 3.79813 6.61188 3.74913 7.68488C3.69613 8.84488 3.68513 9.19288 3.68513 12.1299C3.68513 15.0669 3.69613 15.4149 3.74913 16.5749C3.79813 17.6479 3.97712 18.2299 4.12812 18.6179C4.30412 19.0949 4.58513 19.5279 4.95013 19.8829C5.30513 20.2479 5.73812 20.5289 6.21513 20.7049C6.60313 20.8559 7.18512 21.0349 8.25812 21.0839C9.41812 21.1369 9.76513 21.1479 12.7031 21.1479C15.6411 21.1479 15.9881 21.1369 17.1481 21.0839C18.2211 21.0349 18.8031 20.8559 19.1911 20.7049C19.7041 20.5049 20.0711 20.2679 20.4561 19.8829C20.8211 19.5279 21.1021 19.0949 21.2781 18.6179C21.4291 18.2299 21.6081 17.6479 21.6571 16.5749C21.7101 15.4149 21.7211 15.0669 21.7211 12.1299C21.7211 9.19288 21.7101 8.84488 21.6571 7.68488C21.6081 6.61188 21.4291 6.02988 21.2781 5.64188C21.0781 5.12888 20.8411 4.76188 20.4561 4.37688C20.1011 4.01195 19.6688 3.73109 19.1911 3.55488C18.8031 3.40388 18.2211 3.22488 17.1481 3.17588ZM11.2981 15.5209C12.0828 15.8475 12.9565 15.8916 13.7701 15.6456C14.5836 15.3996 15.2865 14.8788 15.7587 14.1721C16.231 13.4655 16.4432 12.6168 16.3592 11.771C16.2752 10.9252 15.9001 10.1349 15.2981 9.53488C14.9144 9.15136 14.4503 8.8577 13.9395 8.67503C13.4286 8.49236 12.8836 8.42524 12.3436 8.4785C11.8037 8.53175 11.2823 8.70406 10.8169 8.98301C10.3516 9.26197 9.95387 9.64063 9.65243 10.0917C9.35099 10.5428 9.15331 11.0552 9.07364 11.5918C8.99397 12.1285 9.03428 12.6762 9.19166 13.1954C9.34905 13.7146 9.61961 14.1925 9.98385 14.5946C10.3481 14.9967 10.7969 15.3131 11.2981 15.5209ZM8.70512 8.13188C9.23015 7.60686 9.85345 7.19039 10.5394 6.90624C11.2254 6.6221 11.9606 6.47586 12.7031 6.47586C13.4456 6.47586 14.1808 6.6221 14.8668 6.90624C15.5528 7.19039 16.1761 7.60686 16.7011 8.13188C17.2261 8.65691 17.6426 9.2802 17.9268 9.96618C18.2109 10.6522 18.3572 11.3874 18.3572 12.1299C18.3572 12.8724 18.2109 13.6076 17.9268 14.2936C17.6426 14.9796 17.2261 15.6029 16.7011 16.1279C15.6408 17.1882 14.2027 17.7839 12.7031 17.7839C11.2036 17.7839 9.76546 17.1882 8.70512 16.1279C7.64479 15.0675 7.0491 13.6294 7.0491 12.1299C7.0491 10.6303 7.64479 9.19222 8.70512 8.13188ZM19.6111 7.31788C19.7412 7.19515 19.8454 7.04756 19.9174 6.88386C19.9895 6.72015 20.0279 6.54365 20.0305 6.36481C20.0331 6.18597 19.9998 6.00843 19.9326 5.84269C19.8654 5.67696 19.7656 5.52639 19.6391 5.39992C19.5126 5.27345 19.3621 5.17364 19.1963 5.1064C19.0306 5.03916 18.853 5.00586 18.6742 5.00847C18.4954 5.01107 18.3189 5.04954 18.1552 5.12158C17.9914 5.19362 17.8439 5.29778 17.7211 5.42788C17.4824 5.68091 17.3518 6.017 17.3568 6.36481C17.3619 6.71262 17.5023 7.04476 17.7483 7.29073C17.9942 7.53669 18.3264 7.67711 18.6742 7.68218C19.022 7.68725 19.3581 7.55657 19.6111 7.31788Z" fill="white"/>
</svg>
