<svg width="25" height="25" viewBox="0 0 25 25" fill="none" xmlns="http://www.w3.org/2000/svg">
<path fill-rule="evenodd" clip-rule="evenodd" d="M1.70313 2.96789C1.70313 2.48042 1.89677 2.01291 2.24146 1.66822C2.58615 1.32353 3.05366 1.12989 3.54113 1.12989H21.8631C22.1047 1.12949 22.344 1.17675 22.5673 1.26895C22.7906 1.36116 22.9935 1.4965 23.1644 1.66722C23.3353 1.83795 23.4708 2.04071 23.5633 2.2639C23.6557 2.48708 23.7033 2.72631 23.7031 2.96789V21.2899C23.7034 21.5315 23.656 21.7708 23.5637 21.9941C23.4714 22.2174 23.3359 22.4203 23.1651 22.5912C22.9943 22.7621 22.7915 22.8976 22.5683 22.9901C22.345 23.0825 22.1057 23.13 21.8641 23.1299H3.54113C3.29967 23.1299 3.06058 23.0823 2.83752 22.9899C2.61446 22.8974 2.4118 22.762 2.24111 22.5912C2.07042 22.4204 1.93506 22.2177 1.84275 21.9946C1.75044 21.7715 1.70299 21.5323 1.70313 21.2909V2.96789ZM10.4111 9.51789H13.3901V11.0139C13.8201 10.1539 14.9201 9.37989 16.5731 9.37989C19.7421 9.37989 20.4931 11.0929 20.4931 14.2359V20.0579H17.2861V14.9519C17.2861 13.1619 16.8561 12.1519 15.7641 12.1519C14.2491 12.1519 13.6191 13.2409 13.6191 14.9519V20.0579H10.4111V9.51789ZM4.91113 19.9209H8.11913V9.37989H4.91113V19.9199V19.9209ZM8.57813 5.94188C8.58417 6.21656 8.5353 6.48967 8.43436 6.7452C8.33343 7.00073 8.18248 7.23352 7.99036 7.42992C7.79824 7.62631 7.56882 7.78236 7.31558 7.88889C7.06234 7.99543 6.79036 8.0503 6.51563 8.0503C6.24089 8.0503 5.96891 7.99543 5.71567 7.88889C5.46243 7.78236 5.23301 7.62631 5.04089 7.42992C4.84877 7.23352 4.69782 7.00073 4.59689 6.7452C4.49595 6.48967 4.44708 6.21656 4.45313 5.94188C4.465 5.40274 4.68751 4.88968 5.07301 4.51257C5.45851 4.13547 5.97635 3.9243 6.51563 3.9243C7.0549 3.9243 7.57274 4.13547 7.95824 4.51257C8.34374 4.88968 8.56625 5.40274 8.57813 5.94188Z" fill="white"/>
</svg>
