<svg width="25" height="25" viewBox="0 0 25 25" fill="none" xmlns="http://www.w3.org/2000/svg">
<g clip-path="url(#clip0)">
<path d="M24.2037 6.63696C24.0679 6.15219 23.8031 5.7133 23.4377 5.36696C23.062 5.00996 22.6015 4.75459 22.0997 4.62496C20.2217 4.12996 12.6977 4.12996 12.6977 4.12996C9.56107 4.09427 6.42517 4.25123 3.30774 4.59996C2.80593 4.73917 2.34631 5.00025 1.96974 5.35996C1.59974 5.71596 1.33174 6.15496 1.19174 6.63596C0.855435 8.4477 0.692034 10.2873 0.703742 12.13C0.691742 13.971 0.854742 15.81 1.19174 17.624C1.32874 18.103 1.59574 18.54 1.96674 18.893C2.33774 19.246 2.79974 19.501 3.30774 19.636C5.21074 20.13 12.6977 20.13 12.6977 20.13C15.8384 20.1657 18.9783 20.0087 22.0997 19.66C22.6015 19.5303 23.062 19.275 23.4377 18.918C23.8077 18.565 24.0707 18.126 24.2027 17.648C24.5478 15.8369 24.7156 13.9966 24.7037 12.153C24.7297 10.3016 24.5621 8.45252 24.2037 6.63596V6.63696ZM10.3057 15.554V8.70696L16.5657 12.131L10.3057 15.554Z" fill="white"/>
</g>
<defs>
<clipPath id="clip0">
<rect width="24" height="24" fill="white" transform="translate(0.703125 0.129883)"/>
</clipPath>
</defs>
</svg>
