<svg width="25" height="25" viewBox="0 0 25 25" fill="none" xmlns="http://www.w3.org/2000/svg">
<g clip-path="url(#clip0)">
<path d="M0.703125 12.1299C0.703125 17.2529 3.91412 21.6269 8.43313 23.3479C8.32312 22.4109 8.20613 20.8659 8.45813 19.7819C8.67513 18.8499 9.85913 13.8439 9.85913 13.8439C9.85913 13.8439 9.50212 13.1289 9.50212 12.0699C9.50212 10.4099 10.4641 9.16988 11.6631 9.16988C12.6831 9.16988 13.1751 9.93488 13.1751 10.8519C13.1751 11.8769 12.5221 13.4089 12.1851 14.8299C11.9041 16.0189 12.7821 16.9889 13.9541 16.9889C16.0771 16.9889 17.7101 14.7499 17.7101 11.5179C17.7101 8.65688 15.6541 6.65788 12.7191 6.65788C9.32113 6.65788 7.32613 9.20688 7.32613 11.8419C7.32613 12.8689 7.72113 13.9689 8.21513 14.5679C8.25724 14.6131 8.287 14.6684 8.30154 14.7285C8.31607 14.7886 8.3149 14.8514 8.29812 14.9109C8.20712 15.2889 8.00513 16.0999 7.96613 16.2659C7.91313 16.4839 7.79313 16.5309 7.56612 16.4249C6.07412 15.7309 5.14213 13.5499 5.14213 11.7979C5.14213 8.02888 7.87913 4.56888 13.0341 4.56888C17.1781 4.56888 20.3991 7.52188 20.3991 11.4679C20.3991 15.5849 17.8041 18.8989 14.2001 18.8989C12.9891 18.8989 11.8521 18.2689 11.4621 17.5259C11.4621 17.5259 10.8631 19.8079 10.7181 20.3659C10.4361 21.4499 9.65412 22.8219 9.16912 23.6009C10.2871 23.9449 11.4731 24.1299 12.7031 24.1299C19.3301 24.1299 24.7031 18.7569 24.7031 12.1299C24.7031 5.50288 19.3301 0.129883 12.7031 0.129883C6.07613 0.129883 0.703125 5.50288 0.703125 12.1299Z" fill="white"/>
</g>
<defs>
<clipPath id="clip0">
<rect width="24" height="24" fill="white" transform="translate(0.703125 0.129883)"/>
</clipPath>
</defs>
</svg>
