
<svg width="18" height="19" viewBox="0 0 18 19" fill="none" xmlns="http://www.w3.org/2000/svg">
	<path d="M5.27351 10.938C5.27351 11.0891 5.151 11.2116 4.99986 11.2116C4.84871 11.2116 4.7262 11.0891 4.7262 10.938C4.7262 10.7868 4.84872 10.6643 4.99986 10.6643C5.15099 10.6643 5.27351 10.7868 5.27351 10.938Z" fill="currentColor" stroke="currentColor" stroke-width="1.5"></path>
	<path d="M9.27374 10.938C9.27374 11.0891 9.15123 11.2116 9.00009 11.2116C8.84895 11.2116 8.72644 11.0891 8.72644 10.938C8.72644 10.7868 8.84896 10.6643 9.00009 10.6643C9.15122 10.6643 9.27374 10.7868 9.27374 10.938Z" fill="currentColor" stroke="currentColor" stroke-width="1.5"></path>/
	<path d="M13.3737 10.938C13.3737 11.0891 13.2512 11.2116 13.1001 11.2116C12.9489 11.2116 12.8264 11.0891 12.8264 10.938C12.8264 10.7868 12.9489 10.6643 13.1001 10.6643C13.2512 10.6643 13.3737 10.7868 13.3737 10.938Z" fill="currentColor" stroke="currentColor" stroke-width="1.5"></path>
	<path d="M5.00012 1.48096V5.38095" stroke="currentColor" stroke-width="1.5" stroke-miterlimit="10" stroke-linecap="round" stroke-linejoin="round"></path>
	<path d="M13.1001 1.48096V5.38095" stroke="currentColor" stroke-width="1.5" stroke-miterlimit="10" stroke-linecap="round" stroke-linejoin="round"></path>
	<path d="M12.955 3.38086C13.055 3.38086 15.0001 3.38086 15.0001 3.38086C16.1001 3.38086 17.0001 4.28086 17.0001 5.38086V15.4809C17.0001 16.5809 16.1001 17.4809 15.0001 17.4809H3.00012C1.90012 17.4809 1.00012 16.5809 1.00012 15.4809V5.38086C1.00012 4.28086 1.90012 3.38086 3.00012 3.38086C3.00012 3.38086 5.0719 3.38086 5.2719 3.38086" stroke="currentColor" stroke-width="1.5" stroke-miterlimit="10" stroke-linecap="round" stroke-linejoin="round"></path>
	<path d="M5.1001 3.38086C7.2001 3.38086 10.8001 3.38086 12.9001 3.38086" stroke="currentColor" stroke-width="1.5" stroke-miterlimit="10" stroke-linecap="round" stroke-linejoin="round"></path>
</svg>