<svg width="40" height="40" viewBox="0 0 40 40" fill="none" xmlns="http://www.w3.org/2000/svg">
<path d="M27.9179 17.4853C27.9251 17.6375 27.929 17.7909 27.929 17.9443C27.929 22.6155 24.1517 28 17.2405 28C15.1191 28 13.1443 27.4166 11.4824 26.4132C11.7763 26.446 12.0753 26.4627 12.3784 26.4627C14.1389 26.4627 15.7581 25.8973 17.0439 24.9496C15.4005 24.9211 14.0127 23.8992 13.5348 22.4943C13.7635 22.5351 13.9996 22.558 14.2408 22.558C14.5833 22.558 14.916 22.5159 15.2309 22.4349C13.5125 22.1107 12.2181 20.6823 12.2181 18.9687C12.2181 18.9539 12.218 18.9385 12.2187 18.9242C12.7249 19.1884 13.304 19.348 13.9193 19.3659C12.9122 18.7331 12.249 17.6505 12.249 16.4244C12.249 15.7761 12.4337 15.1686 12.7571 14.6464C14.609 16.7856 17.3779 18.1924 20.4992 18.3409C20.4348 18.0817 20.4026 17.8126 20.4026 17.5348C20.4026 15.583 22.0841 14 24.1582 14C25.239 14 26.2139 14.4293 26.9003 15.116C27.7568 14.9576 28.5589 14.6644 29.2866 14.258C29.0039 15.0838 28.4103 15.7761 27.6326 16.2141C28.3932 16.1287 29.1189 15.9394 29.7901 15.6579C29.2892 16.3656 28.6522 16.9885 27.9179 17.4853Z" fill="#69bc45"/>
<circle cx="20" cy="20" r="19.5" stroke="#CBDFEA"/>
</svg>
