<svg width="40" height="40" viewBox="0 0 40 40" fill="none" xmlns="http://www.w3.org/2000/svg">
<path d="M15.6004 16.4338H12.416V27.944H15.6004V16.4338Z" fill="#69bc45"/>
<path d="M24.2492 16.3076C22.451 16.3076 21.2896 17.4201 21.0648 18.2331V16.436H17.5059C17.5433 17.3773 17.5059 27.9462 17.5059 27.9462H21.1023V21.699C21.1023 21.3567 21.1023 20.9716 21.1772 20.7576C21.4395 20.0302 21.9265 19.3456 22.9005 19.3456C24.1368 19.3456 24.6987 20.4153 24.6987 21.9557V27.9034H28.3326V21.4851C28.2952 17.9764 26.5344 16.3076 24.2492 16.3076Z" fill="#69bc45"/>
<path d="M13.9476 11C12.7491 11 12 11.8556 12 13.0106C12 14.1228 12.7491 14.9784 13.9101 14.9784H13.9476C15.1461 14.9784 15.8952 14.1228 15.8952 12.9678C15.8203 11.8556 15.1087 11 13.9476 11Z" fill="#69bc45"/>
<circle cx="20" cy="20" r="19.5" stroke="#CBDFEA"/>
</svg>
