<svg width="67" height="66" viewBox="0 0 67 66" fill="none" xmlns="http://www.w3.org/2000/svg">
<ellipse cx="33.2" cy="32.6071" rx="33.2" ry="32.6071" fill="#FCF99F"/>
<path d="M13.5209 23.4489H15.5669V29.5759H17.1949V23.4489H19.2409V21.9969H13.5209V23.4489ZM21.7982 26.3859L22.5682 23.7459L23.3712 26.3859H21.7982ZM23.8882 27.7829L24.5592 29.5759H26.2532L23.4482 21.9969H21.6992L18.8832 29.5759H20.5992L21.2702 27.7829H23.8882ZM30.1712 23.4159C30.7872 23.4159 31.0842 24.0099 31.0842 24.4829C31.0842 24.9669 30.7542 25.5499 30.1272 25.5499H28.7082V23.4159H30.1712ZM27.0912 29.5759H28.7082V26.9579H30.2042C31.9312 26.9579 32.7012 25.7479 32.7012 24.4829C32.7012 23.2399 31.9312 21.9969 30.2042 21.9969H27.0912V29.5759ZM35.6498 23.4489H37.6958V29.5759H39.3238V23.4489H41.3698V21.9969H35.6498V23.4489ZM43.5648 25.8029C43.5648 24.5379 44.5328 23.5039 45.7978 23.5039C47.0518 23.5039 48.0418 24.5379 48.0418 25.8029C48.0418 27.0679 47.0518 28.0909 45.7978 28.0909C44.5328 28.0909 43.5648 27.0679 43.5648 25.8029ZM41.9588 25.8029C41.9588 27.9369 43.6528 29.6859 45.7978 29.6859C47.9538 29.6859 49.6478 27.9369 49.6478 25.8029C49.6478 23.6579 47.9538 21.9089 45.7978 21.9089C43.6528 21.9089 41.9588 23.6579 41.9588 25.8029ZM10.0326 43.5759H14.9276V42.1569H11.6386V40.5399H14.4326V39.1429H11.6386V37.4159H14.8286V35.9969H10.0326V43.5759ZM22.4425 35.9969H20.5175L19.0985 38.2629L17.6905 35.9969H15.7545L18.1415 39.5389L15.5235 43.5759H17.4155L19.0985 40.8259L20.7815 43.5759H22.6845L20.0555 39.5389L22.4425 35.9969ZM26.6907 37.4159C27.3067 37.4159 27.6037 38.0099 27.6037 38.4829C27.6037 38.9669 27.2737 39.5499 26.6467 39.5499H25.2277V37.4159H26.6907ZM23.6107 43.5759H25.2277V40.9579H26.7237C28.4507 40.9579 29.2207 39.7479 29.2207 38.4829C29.2207 37.2399 28.4507 35.9969 26.7237 35.9969H23.6107V43.5759ZM30.3676 43.5759H34.8226V42.1569H31.9846V35.9969H30.3676V43.5759ZM36.9799 39.8029C36.9799 38.5379 37.9479 37.5039 39.2129 37.5039C40.4669 37.5039 41.4569 38.5379 41.4569 39.8029C41.4569 41.0679 40.4669 42.0909 39.2129 42.0909C37.9479 42.0909 36.9799 41.0679 36.9799 39.8029ZM35.3739 39.8029C35.3739 41.9369 37.0679 43.6859 39.2129 43.6859C41.3689 43.6859 43.0629 41.9369 43.0629 39.8029C43.0629 37.6579 41.3689 35.9089 39.2129 35.9089C37.0679 35.9089 35.3739 37.6579 35.3739 39.8029ZM47.4326 37.4159C48.0486 37.4159 48.3456 38.0099 48.3456 38.4829C48.3456 38.9669 48.0156 39.5499 47.3886 39.5499H46.0246V37.4159H47.4326ZM48.1366 40.8919C49.4346 40.6279 50.0286 39.5499 50.0286 38.4829C50.0286 37.2399 49.2256 35.9969 47.5096 35.9969H44.4076V43.5759H46.0246V40.9579H46.3876L48.0816 43.5759H50.0176L48.1366 40.8919ZM51.4115 43.5759H56.3065V42.1569H53.0175V40.5399H55.8115V39.1429H53.0175V37.4159H56.2075V35.9969H51.4115V43.5759Z" fill="#163D5D"/>
</svg>
