<svg width="47" height="46" viewBox="0 0 47 46" fill="none" xmlns="http://www.w3.org/2000/svg">
<g filter="url(#filter0_d)">
<circle cx="23.7461" cy="23" r="16" fill="white"/>
<path d="M32.5693 30.6813L28.4756 26.5875C29.7255 25.1102 30.3561 23.2069 30.2354 21.2756C30.1148 19.3442 29.2523 17.5342 27.8282 16.2239C26.4042 14.9137 24.5288 14.2045 22.594 14.2448C20.6593 14.285 18.815 15.0715 17.4467 16.4399C16.0784 17.8082 15.2919 19.6525 15.2516 21.5872C15.2114 23.5219 15.9205 25.3973 17.2308 26.8214C18.5411 28.2454 20.351 29.1079 22.2824 29.2286C24.2138 29.3492 26.117 28.7187 27.5943 27.4688L31.6881 31.5625C31.8077 31.6649 31.9615 31.7184 32.1187 31.7123C32.276 31.7062 32.4253 31.641 32.5366 31.5297C32.6479 31.4184 32.7131 31.2692 32.7192 31.1119C32.7252 30.9546 32.6717 30.8008 32.5693 30.6813ZM16.5006 21.75C16.5006 20.5139 16.8671 19.3055 17.5539 18.2777C18.2407 17.2499 19.2168 16.4488 20.3588 15.9758C21.5009 15.5027 22.7575 15.3789 23.9699 15.6201C25.1823 15.8613 26.2959 16.4565 27.17 17.3306C28.0441 18.2047 28.6393 19.3183 28.8805 20.5307C29.1217 21.7431 28.9979 22.9997 28.5248 24.1418C28.0518 25.2838 27.2507 26.2599 26.2229 26.9467C25.1951 27.6334 23.9867 28 22.7506 28C21.093 28 19.5033 27.3415 18.3312 26.1694C17.1591 24.9973 16.5006 23.4076 16.5006 21.75Z" fill="#204867"/>
<path d="M25.875 21.125H23.375V18.625C23.375 18.4592 23.3092 18.3003 23.1919 18.1831C23.0747 18.0658 22.9158 18 22.75 18C22.5842 18 22.4253 18.0658 22.3081 18.1831C22.1908 18.3003 22.125 18.4592 22.125 18.625V21.125H19.625C19.4592 21.125 19.3003 21.1908 19.1831 21.3081C19.0658 21.4253 19 21.5842 19 21.75C19 21.9158 19.0658 22.0747 19.1831 22.1919C19.3003 22.3092 19.4592 22.375 19.625 22.375H22.125V24.875C22.125 25.0408 22.1908 25.1997 22.3081 25.3169C22.4253 25.4342 22.5842 25.5 22.75 25.5C22.9158 25.5 23.0747 25.4342 23.1919 25.3169C23.3092 25.1997 23.375 25.0408 23.375 24.875V22.375H25.875C26.0408 22.375 26.1997 22.3092 26.3169 22.1919C26.4342 22.0747 26.5 21.9158 26.5 21.75C26.5 21.5842 26.4342 21.4253 26.3169 21.3081C26.1997 21.1908 26.0408 21.125 25.875 21.125Z" fill="#204867"/>
</g>
<defs>
<filter id="filter0_d" x="0.746094" y="0" width="46" height="46" filterUnits="userSpaceOnUse" color-interpolation-filters="sRGB">
<feFlood flood-opacity="0" result="BackgroundImageFix"/>
<feColorMatrix in="SourceAlpha" type="matrix" values="0 0 0 0 0 0 0 0 0 0 0 0 0 0 0 0 0 0 127 0" result="hardAlpha"/>
<feOffset/>
<feGaussianBlur stdDeviation="3.5"/>
<feComposite in2="hardAlpha" operator="out"/>
<feColorMatrix type="matrix" values="0 0 0 0 0 0 0 0 0 0 0 0 0 0 0 0 0 0 0.05 0"/>
<feBlend mode="normal" in2="BackgroundImageFix" result="effect1_dropShadow"/>
<feBlend mode="normal" in="SourceGraphic" in2="effect1_dropShadow" result="shape"/>
</filter>
</defs>
</svg>
