<svg width="28" height="28" viewBox="0 0 28 28" fill="none" xmlns="http://www.w3.org/2000/svg">
<path d="M24.5 0.5H3.5C1.85 0.5 0.5 1.85 0.5 3.5V24.5C0.5 26.15 1.85 27.5 3.5 27.5H24.5C26.15 27.5 27.5 26.15 27.5 24.5V3.5C27.5 1.85 26.15 0.5 24.5 0.5ZM8 21.5C7.175 21.5 6.5 20.825 6.5 20V15.5C6.5 14.675 7.175 14 8 14C8.825 14 9.5 14.675 9.5 15.5V20C9.5 20.825 8.825 21.5 8 21.5ZM14 21.5C13.175 21.5 12.5 20.825 12.5 20V18.5C12.5 17.675 13.175 17 14 17C14.825 17 15.5 17.675 15.5 18.5V20C15.5 20.825 14.825 21.5 14 21.5ZM14 14C13.175 14 12.5 13.325 12.5 12.5C12.5 11.675 13.175 11 14 11C14.825 11 15.5 11.675 15.5 12.5C15.5 13.325 14.825 14 14 14ZM20 21.5C19.175 21.5 18.5 20.825 18.5 20V8C18.5 7.175 19.175 6.5 20 6.5C20.825 6.5 21.5 7.175 21.5 8V20C21.5 20.825 20.825 21.5 20 21.5Z" fill="white"/>
</svg>
