<svg width="34" height="32" viewBox="0 0 34 32" fill="none" xmlns="http://www.w3.org/2000/svg">
<path d="M27.5 0.5L20 8V24.5L27.5 17.75V0.5ZM0.5 8V29.975C0.5 30.35 0.875 30.725 1.25 30.725C1.4 30.725 1.475 30.65 1.625 30.65C3.65 29.675 6.575 29 8.75 29C11.675 29 14.825 29.6 17 31.25V8C14.825 6.35 11.675 5.75 8.75 5.75C5.825 5.75 2.675 6.35 0.5 8ZM33.5 28.25V8C32.6 7.325 31.625 6.875 30.5 6.5V26.75C28.85 26.225 27.05 26 25.25 26C22.7 26 19.025 26.975 17 28.25V31.25C19.025 29.975 22.7 29 25.25 29C27.725 29 30.275 29.45 32.375 30.575C32.525 30.65 32.6 30.65 32.75 30.65C33.125 30.65 33.5 30.275 33.5 29.9V28.25Z" fill="white"/>
</svg>
