<svg width="24" height="30" viewBox="0 0 24 30" fill="none" xmlns="http://www.w3.org/2000/svg">
<path d="M15.885 0.885C15.315 0.315 14.55 0 13.755 0H3C1.35 0 0 1.35 0 3V27C0 28.65 1.335 30 2.985 30H21C22.65 30 24 28.65 24 27V10.245C24 9.45 23.685 8.685 23.115 8.13L15.885 0.885ZM16.5 21H13.5V24C13.5 24.825 12.825 25.5 12 25.5C11.175 25.5 10.5 24.825 10.5 24V21H7.5C6.675 21 6 20.325 6 19.5C6 18.675 6.675 18 7.5 18H10.5V15C10.5 14.175 11.175 13.5 12 13.5C12.825 13.5 13.5 14.175 13.5 15V18H16.5C17.325 18 18 18.675 18 19.5C18 20.325 17.325 21 16.5 21ZM13.5 9V2.25L21.75 10.5H15C14.175 10.5 13.5 9.825 13.5 9Z" fill="white"/>
</svg>
