<svg width="34" height="22" viewBox="0 0 34 22" fill="none" xmlns="http://www.w3.org/2000/svg">
<path d="M23 9.5C25.49 9.5 27.485 7.49 27.485 5C27.485 2.51 25.49 0.5 23 0.5C20.51 0.5 18.5 2.51 18.5 5C18.5 7.49 20.51 9.5 23 9.5ZM11 9.5C13.49 9.5 15.485 7.49 15.485 5C15.485 2.51 13.49 0.5 11 0.5C8.51 0.5 6.5 2.51 6.5 5C6.5 7.49 8.51 9.5 11 9.5ZM11 12.5C7.505 12.5 0.5 14.255 0.5 17.75V20C0.5 20.825 1.175 21.5 2 21.5H20C20.825 21.5 21.5 20.825 21.5 20V17.75C21.5 14.255 14.495 12.5 11 12.5ZM23 12.5C22.565 12.5 22.07 12.53 21.545 12.575C21.575 12.59 21.59 12.62 21.605 12.635C23.315 13.88 24.5 15.545 24.5 17.75V20C24.5 20.525 24.395 21.035 24.23 21.5H32C32.825 21.5 33.5 20.825 33.5 20V17.75C33.5 14.255 26.495 12.5 23 12.5Z" fill="white"/>
</svg>
