<svg width="18" height="18" viewBox="0 0 18 18" fill="none" xmlns="http://www.w3.org/2000/svg">
<path fill-rule="evenodd" clip-rule="evenodd" d="M8.92807 0C13.5926 0 17.3796 3.88434 17.3796 8.66873C17.3796 13.4531 13.5926 17.3375 8.92807 17.3375C4.26356 17.3375 0.476562 13.4531 0.476562 8.66873C0.476562 3.88434 4.26356 0 8.92807 0ZM7.43945 13.2793C11.1793 13.2793 13.2242 10.1007 13.2242 7.3459C13.2242 7.25508 13.2242 7.16427 13.22 7.07775C13.6163 6.78369 13.9621 6.41608 14.2361 5.99659C13.8736 6.16093 13.4814 6.27339 13.0682 6.32526C13.4899 6.06578 13.8103 5.65926 13.9621 5.17059C13.57 5.40844 13.1357 5.58141 12.6719 5.67656C12.3008 5.27005 11.7738 5.01923 11.1878 5.01923C10.0662 5.01923 9.1555 5.95335 9.1555 7.10372C9.1555 7.26805 9.17237 7.42805 9.2103 7.57942C7.51957 7.49293 6.02277 6.6626 5.01931 5.39977C4.84642 5.70684 4.74523 6.06578 4.74523 6.44635C4.74523 7.16857 5.10363 7.80863 5.65176 8.18054C5.31865 8.1719 5.00664 8.07675 4.73259 7.92109V7.94703C4.73259 8.959 5.43248 9.79797 6.36429 9.99261C6.19566 10.0402 6.01435 10.0661 5.82884 10.0661C5.69811 10.0661 5.57163 10.0532 5.44516 10.0272C5.70233 10.8575 6.45283 11.4587 7.34249 11.4759C6.64679 12.0339 5.76981 12.3669 4.81691 12.3669C4.65247 12.3669 4.49225 12.3582 4.33203 12.3366C5.22169 12.9334 6.29262 13.2793 7.43945 13.2793Z" fill="#00609C"/>
</svg>
