<svg width="18" height="18" viewBox="0 0 18 18" fill="none" xmlns="http://www.w3.org/2000/svg">
<path fill-rule="evenodd" clip-rule="evenodd" d="M15.8487 0C17.036 0 17.9999 0.949158 17.9999 2.11822V15.2192C17.9999 16.3883 17.036 17.3375 15.8487 17.3375H2.54377C1.35651 17.3375 0.392578 16.3883 0.392578 15.2192V2.11822C0.392578 0.949158 1.35648 0 2.54377 0H15.8487V0ZM5.91073 14.3331V6.68986H3.33015V14.3331H5.91073ZM15.2144 14.3331V9.95004C15.2144 7.60227 13.9414 6.51012 12.2438 6.51012C10.875 6.51012 10.2618 7.25139 9.9185 7.77203V6.68986H7.33858C7.3728 7.40709 7.33858 14.3331 7.33858 14.3331H9.91847V10.0646C9.91847 9.8361 9.93518 9.60773 10.0035 9.44441C10.1897 8.98812 10.6145 8.51544 11.3273 8.51544C12.2605 8.51544 12.6344 9.21662 12.6344 10.2437V14.3331H15.2144ZM4.63788 3.00433C3.75497 3.00433 3.17812 3.57589 3.17812 4.32502C3.17812 5.05841 3.73743 5.64571 4.60373 5.64571H4.62037C5.52017 5.64571 6.08027 5.05841 6.08027 4.32502C6.06359 3.57694 5.52175 3.00595 4.63788 3.00433Z" fill="#00609C"/>
</svg>
